#define eraser_width 17
#define eraser_height 17
#define eraser_x_hot 0
#define eraser_y_hot 0
static unsigned char eraser_bits[] = {
   0x60, 0x00, 0x00, 0xf0, 0x00, 0x00, 0x98, 0x01, 0x00, 0x0c, 0x03, 0x00,
   0x06, 0x06, 0x00, 0x03, 0x0e, 0x00, 0x03, 0x1f, 0x00, 0x86, 0x3f, 0x00,
   0xcc, 0x7f, 0x00, 0xf8, 0xff, 0x00, 0xf0, 0xff, 0x01, 0xe0, 0xff, 0x01,
   0xc0, 0xff, 0x00, 0x80, 0x7f, 0x00, 0x00, 0x3f, 0x00, 0x00, 0x1e, 0x00,
   0x00, 0x0c, 0x00 };
