#define sel_width 10
#define sel_height 17
#define sel_x_hot 2
#define sel_y_hot 0
static unsigned char sel_bits[] = {
   0x03, 0x00, 0x07, 0x00, 0x0f, 0x00, 0x1f, 0x00, 0x3f, 0x00, 0x7f, 0x00,
   0xff, 0x00, 0xff, 0x01, 0xff, 0x03, 0xff, 0x03, 0x3f, 0x00, 0x77, 0x00,
   0x63, 0x00, 0xe1, 0x00, 0xc0, 0x00, 0xc0, 0x01, 0x80, 0x00 };
