#define pen_width 16
#define pen_height 16
#define pen_x_hot 5
#define pen_y_hot 0
static unsigned char pen_bits[] = {
   0x1f, 0x00, 0x31, 0x00, 0x79, 0x00, 0xfd, 0x00, 0xff, 0x01, 0xfe, 0x03,
   0xfc, 0x07, 0xf8, 0x0f, 0xf0, 0x1f, 0xe0, 0x2f, 0xc0, 0x37, 0x80, 0xdb,
   0x00, 0xed, 0x00, 0x76, 0x00, 0x38, 0x00, 0x18 };
