#define pen_width 17
#define pen_height 17
#define pen_x_hot 0
#define pen_y_hot 0
static unsigned char pen_bits[] = {
   0x00, 0x00, 0x00, 0x3e, 0x00, 0x00, 0x62, 0x00, 0x00, 0xf2, 0x00, 0x00,
   0xfa, 0x01, 0x00, 0xfe, 0x03, 0x00, 0xfc, 0x07, 0x00, 0xf8, 0x0f, 0x00,
   0xf0, 0x1f, 0x00, 0xe0, 0x3f, 0x00, 0xc0, 0x5f, 0x00, 0x80, 0x6f, 0x00,
   0x00, 0xb7, 0x01, 0x00, 0xda, 0x01, 0x00, 0xec, 0x00, 0x00, 0x70, 0x00,
   0x00, 0x30, 0x00 };
