#define sel_width 17
#define sel_height 17
#define sel_x_hot 0
#define sel_y_hot 0
static unsigned char sel_bits[] = {
   0x18, 0x00, 0x00, 0x38, 0x00, 0x00, 0x78, 0x00, 0x00, 0xf8, 0x00, 0x00,
   0xf8, 0x01, 0x00, 0xf8, 0x03, 0x00, 0xf8, 0x07, 0x00, 0xf8, 0x0f, 0x00,
   0xf8, 0x1f, 0x00, 0xf8, 0x1f, 0x00, 0xf8, 0x01, 0x00, 0xb8, 0x03, 0x00,
   0x18, 0x03, 0x00, 0x08, 0x07, 0x00, 0x00, 0x06, 0x00, 0x00, 0x0e, 0x00,
   0x00, 0x04, 0x00 };
